<svg width="86" height="38" viewBox="0 0 86 38" fill="none" xmlns="http://www.w3.org/2000/svg">
<path d="M59.0041 36.4304V37.7266H52.5715V27.0352H54.0671V36.4304H59.0041Z" fill="white"/>
<path d="M71.2369 37.7267C71.0631 37.2652 70.8979 36.8094 70.7441 36.3621C70.5902 35.9149 70.4307 35.4591 70.2655 34.9976H65.4225L64.4511 37.7267H62.8928C63.303 36.5957 63.6905 35.5502 64.0494 34.5874C64.4084 33.6245 64.7616 32.7129 65.1063 31.8497C65.451 30.9865 65.7929 30.1604 66.1319 29.3741C66.4709 28.5878 66.827 27.8073 67.1973 27.0381H68.5704C68.9408 27.8101 69.294 28.5878 69.6359 29.3741C69.9777 30.1604 70.3167 30.9865 70.6614 31.8497C71.0061 32.7129 71.3594 33.6273 71.7183 34.5874C72.0773 35.5502 72.4647 36.5957 72.875 37.7267H71.2369ZM69.8325 33.7612C69.502 32.8667 69.1772 32.0007 68.8525 31.1631C68.5277 30.3256 68.1916 29.5194 67.8412 28.7474C67.4822 29.5194 67.1404 30.3227 66.8156 31.1631C66.4908 32.0007 66.1689 32.8667 65.8527 33.7612H69.8325Z" fill="white"/>
<path d="M80.2931 37.8178C80.0766 37.8178 79.843 37.8121 79.5923 37.8036C79.3416 37.795 79.0881 37.7779 78.8374 37.758C78.5867 37.738 78.336 37.7124 78.0882 37.6811C77.8403 37.6497 77.6153 37.6099 77.4102 37.5586V27.1919C77.6153 27.1406 77.8432 27.0978 78.0882 27.0694C78.336 27.038 78.5838 27.0124 78.8374 26.9924C79.0881 26.9725 79.3388 26.9554 79.5866 26.9469C79.8345 26.9355 80.0652 26.9326 80.2817 26.9326C80.8999 26.9326 81.4782 26.9782 82.0166 27.0722C82.5579 27.1662 83.0251 27.3229 83.4211 27.5423C83.8171 27.7645 84.1276 28.055 84.3555 28.414C84.5805 28.7729 84.6945 29.2173 84.6945 29.7415C84.6945 30.3284 84.5549 30.8098 84.2786 31.183C83.9994 31.559 83.6319 31.8382 83.1675 32.0234C83.7943 32.2086 84.2928 32.502 84.6632 32.9037C85.0335 33.3053 85.2187 33.8694 85.2187 34.6015C85.2187 35.6727 84.8255 36.476 84.0393 37.0173C83.253 37.5557 82.0052 37.8264 80.2988 37.8264L80.2931 37.8178ZM78.8887 31.5391H80.4612C80.8315 31.5391 81.1819 31.5135 81.5095 31.4622C81.8372 31.4109 82.1249 31.3197 82.3642 31.1858C82.6063 31.052 82.7972 30.8782 82.9339 30.6617C83.0735 30.4452 83.1419 30.1745 83.1419 29.8441C83.1419 29.5364 83.0707 29.2772 82.9254 29.0664C82.7801 28.8555 82.5835 28.6875 82.3329 28.5564C82.0822 28.4282 81.7859 28.3314 81.4469 28.2715C81.1079 28.2089 80.7461 28.1804 80.3672 28.1804C79.9883 28.1804 79.6892 28.1861 79.4727 28.1946C79.2562 28.206 79.0624 28.2203 78.8858 28.2402V31.5419H78.8887V31.5391ZM78.8887 32.7441V36.5074C79.0026 36.5188 79.1365 36.5273 79.2903 36.5387C79.4242 36.5501 79.5809 36.5558 79.7604 36.5615C79.9399 36.5672 80.1478 36.57 80.3843 36.57C80.8258 36.57 81.2446 36.5416 81.6406 36.4846C82.0366 36.4276 82.3841 36.3279 82.6832 36.1826C82.9824 36.0402 83.2217 35.8379 83.4011 35.5815C83.5806 35.3251 83.6718 35.0004 83.6718 34.6101C83.6718 34.2597 83.6034 33.9634 83.4724 33.7241C83.3385 33.482 83.1448 33.2911 82.8941 33.1458C82.6405 33.0034 82.3414 32.898 81.991 32.8381C81.6406 32.7755 81.2503 32.7441 80.8173 32.7441H78.8887Z" fill="white"/>
<path d="M5.67192 0.177002C6.15907 1.02594 6.70318 2.0572 7.29858 3.27078C7.89397 4.48436 8.50646 5.76346 9.13319 7.11094C9.74853 8.45271 10.3639 9.81728 10.9764 11.2046C11.586 12.5891 12.1415 13.8682 12.6571 15.0448L14.3408 11.2046C14.939 9.82013 15.5515 8.45271 16.1668 7.11094C16.7822 5.76916 17.4004 4.49291 18.0015 3.27078C18.6025 2.04865 19.121 1.02879 19.6253 0.177002H23.4056C23.605 1.86633 23.7959 3.65821 23.9753 5.54696C24.1605 7.44139 24.3229 9.38711 24.471 11.367C24.6192 13.3469 24.7559 15.3553 24.8727 17.3495C24.9895 19.3436 25.1092 21.3121 25.1975 23.2179H21.0496C20.9613 20.5372 20.8531 17.7768 20.7306 14.9365C20.6081 12.0963 20.4172 9.35008 20.1608 6.69786C19.9215 7.20779 19.5911 7.81743 19.3062 8.52393C19.0213 9.23043 18.6168 10.011 18.2322 10.8343C17.8476 11.6576 17.4773 12.5151 17.1126 13.3982L15.9902 15.9621C15.6199 16.7939 15.2837 17.5717 14.976 18.2896C14.6684 19.0074 14.4063 19.6228 14.1755 20.1327H11.0276C10.8026 19.6655 10.5405 19.0473 10.2243 18.3067C9.90806 17.566 9.58045 16.7939 9.20441 15.9621C8.82837 15.1303 8.45803 14.2785 8.08484 13.3811C7.71165 12.4837 7.30997 11.6433 6.96242 10.8172C6.61487 9.99106 6.23313 9.22473 5.89698 8.50114C5.56082 7.77755 5.28164 7.17931 5.00531 6.69786C4.76031 9.35578 4.56945 12.1049 4.43555 14.9422C4.30166 17.7796 4.19626 20.5429 4.12504 23.2293H0C0.0968586 21.3292 0.205112 19.3578 0.324761 17.3096C0.447259 15.267 0.584 13.2501 0.729288 11.2445C0.874576 9.23898 1.04265 7.29041 1.22213 5.42161C1.4016 3.55281 1.59247 1.78087 1.78334 0.1827L5.67192 0.177002Z" fill="white"/>
<path d="M60.1088 23.3176C58.579 23.3376 57.0606 23.0755 55.6248 22.5456C54.3429 22.0556 53.192 21.2751 52.2604 20.2666C51.3061 19.2154 50.5825 17.9762 50.1381 16.6258C49.6196 15.0248 49.3689 13.3497 49.3974 11.669C49.3518 9.97679 49.631 8.29316 50.215 6.70354C50.7335 5.33897 51.5283 4.0969 52.5481 3.05425C53.531 2.05432 54.7161 1.27661 56.0237 0.775221C57.3882 0.253894 58.8354 -0.0110425 60.2968 0.000352602C61.1372 -0.00534496 61.9776 0.0658746 62.8038 0.214011C63.4675 0.330811 64.1227 0.487494 64.7694 0.678363C65.2452 0.829348 65.7067 1.01737 66.1511 1.24812L66.9231 1.66974L65.7351 4.98287C65.04 4.58689 64.2994 4.27922 63.5273 4.06841C62.5189 3.76929 61.4705 3.62115 60.4193 3.6297C59.4963 3.624 58.579 3.79208 57.7187 4.12824C56.8925 4.46154 56.1518 4.97148 55.5508 5.6267C54.9069 6.35599 54.4226 7.21062 54.1264 8.13647C53.7646 9.27029 53.5908 10.4554 53.6107 11.6462C53.5993 12.743 53.7361 13.8369 54.0124 14.8995C54.2517 15.8282 54.6733 16.6999 55.2516 17.4634C55.8157 18.187 56.545 18.7624 57.3768 19.1442C58.3511 19.5658 59.4052 19.7681 60.4649 19.7396C61.65 19.7737 62.8351 19.6256 63.9746 19.3008C64.6925 19.0872 65.3933 18.8137 66.0656 18.4832L67.188 21.7964C66.8604 22.0072 66.51 22.1781 66.1454 22.312C65.6269 22.5029 65.0999 22.6653 64.5643 22.7992C63.8977 22.9758 63.2225 23.104 62.5388 23.1866C61.7326 23.2806 60.9207 23.3233 60.1088 23.3176Z" fill="white"/>
<path d="M77.6038 19.8079C79.0595 19.8079 80.1192 19.5629 80.7858 19.0701C81.4525 18.5887 81.8342 17.8024 81.7972 16.9791C81.8114 16.5005 81.7003 16.0248 81.4753 15.6003C81.2246 15.1872 80.8913 14.8311 80.4981 14.5519C80.0195 14.2129 79.5068 13.9281 78.9683 13.6973C78.3672 13.4124 77.6778 13.1703 76.9115 12.911C76.1395 12.6518 75.3846 12.3384 74.6553 11.9738C73.963 11.6604 73.322 11.2417 72.7551 10.7374C72.2053 10.2389 71.7581 9.63779 71.4361 8.97117C71.0857 8.19346 70.9148 7.34452 70.9376 6.49273C70.8521 4.66951 71.6242 2.91181 73.0286 1.74666C74.4274 0.60715 76.3247 0.0373937 78.7262 0.0373937C79.9825 0.0203011 81.2331 0.176984 82.4438 0.507443C83.3384 0.738194 84.1987 1.0772 85.0077 1.51876L83.7543 4.79201C83.0022 4.37324 82.1931 4.05702 81.3556 3.85476C80.4782 3.6411 79.5751 3.53285 78.6721 3.5357C77.769 3.48157 76.8688 3.71517 76.1082 4.20801C75.5071 4.64957 75.1652 5.36177 75.1965 6.10815C75.1823 6.55256 75.2849 6.99127 75.4928 7.38155C75.7093 7.75189 75.9999 8.07666 76.3475 8.32735C76.7605 8.62932 77.1992 8.88856 77.6636 9.10222C78.2134 9.35576 78.7746 9.58081 79.3472 9.77453C80.3956 10.162 81.3414 10.5551 82.1504 10.9454C82.9196 11.3072 83.6232 11.7886 84.2414 12.3698C84.8055 12.9139 85.2499 13.572 85.5405 14.2984C85.8652 15.1559 86.0191 16.0675 85.9934 16.9848C86.0817 18.7966 85.2898 20.5372 83.8654 21.6596C82.441 22.7792 80.3528 23.3404 77.5981 23.3404C76.752 23.3461 75.9087 23.2863 75.074 23.161C74.3903 23.0584 73.7123 22.916 73.0457 22.7308C72.5272 22.5827 72.0145 22.4032 71.5159 22.1981C71.1627 22.0528 70.8208 21.8876 70.4904 21.6995L71.6954 18.3636C72.4532 18.7596 73.248 19.0843 74.0684 19.3265C75.2136 19.6712 76.4073 19.8336 77.6038 19.8079Z" fill="white"/>
<path d="M41.9888 16.7941C41.8093 16.2243 41.6127 15.6716 41.419 15.0449C41.2253 14.4182 41.0002 13.8513 40.7923 13.2559H34.3939C34.1916 13.857 33.9837 14.4495 33.7757 15.0506C33.5678 15.6517 33.3712 16.2329 33.206 16.7941H29.3857C30.0039 15.0335 30.5851 13.4069 31.1349 11.9112C31.6847 10.4156 32.226 9.01404 32.7615 7.70075C33.2886 6.38461 33.8099 5.13115 34.3255 3.94036C34.8355 2.74957 35.3682 1.59581 35.9237 0.464844H39.3992C39.969 1.58441 40.4647 2.74387 40.986 3.94036C41.5073 5.13685 42.0343 6.38461 42.5614 7.70075C43.0884 9.01689 43.6297 10.4299 44.1852 11.9226C44.7407 13.4154 45.3076 15.0563 45.9343 16.8055L41.9888 16.7941ZM37.5703 4.15117C37.4877 4.39331 37.368 4.72092 37.2113 5.1226C37.0547 5.52428 36.8695 6.00288 36.6416 6.54699C36.4137 7.09111 36.2143 7.66656 35.9607 8.31039C35.7072 8.95421 35.4622 9.63507 35.2058 10.3416H39.8835C39.63 9.62937 39.3907 8.95136 39.1542 8.30754C38.9178 7.66372 38.6956 7.07402 38.4876 6.5356C38.2796 5.99718 38.0888 5.52428 37.9178 5.11121L37.5703 4.15117Z" fill="white"/>
<path d="M45.9903 19.9617H35.4014V22.8788H45.9903V19.9617Z" fill="white"/>
<path d="M32.3222 19.9618H29.405V22.8789H32.3222V19.9618Z" fill="white"/>
</svg>
