<svg width="150" height="34" viewBox="0 0 150 34" fill="none" xmlns="http://www.w3.org/2000/svg">
<g clip-path="url(#clip0_1505_5021)">
<path fill-rule="evenodd" clip-rule="evenodd" d="M143.468 20.0649C146.731 20.0649 149.252 17.4232 149.283 14.2918C149.057 12.9242 148.576 10.3945 145.001 10.3945C141.093 10.3945 139.797 15.8195 136.614 19.3149C136.357 21.3047 134.465 23.0843 132.096 23.3843C132.677 23.9862 133.966 24.3112 135.506 24.3112C138.322 24.3112 141.736 23.4686 143.521 21.7186C141.138 21.7492 139.605 20.2297 139.455 18.1223C140.618 19.5205 141.93 20.0649 143.468 20.0649Z" fill="#17ABDA"/>
<path fill-rule="evenodd" clip-rule="evenodd" d="M61.8529 10.285C62.8505 10.285 63.4229 11.1952 63.3231 12.5054C63.2066 14.0433 62.0804 15.8007 60.1226 17.1859C59.0961 14.2942 59.8588 10.285 61.8529 10.285ZM48.5212 31.1581C47.4966 31.1581 46.9558 30.1933 46.9558 29.0989C46.9558 26.1535 49.1318 24.5896 51.8159 23.2479C51.6937 29.6868 50.1872 31.1581 48.5212 31.1581ZM118.4 11.4378C118.4 9.71461 118.297 8.56369 117.161 8.56369C116.645 8.56369 116.392 8.66369 115.939 8.81461C116.34 14.6396 115.014 19.7683 113.397 19.7683C111.277 19.7683 112.336 7.28498 107.841 7.28498C103.7 7.28498 103.104 17.2498 102.633 17.2498C102.312 17.2498 102.265 14.6331 102.28 12.6387C102.456 11.6822 102.547 10.8239 102.547 10.1711C102.547 9.24332 102.168 7.63776 100.048 8.44054C100.123 15.5655 98.685 19.8739 97.0674 19.8739C94.6948 19.8739 94.6687 13.4128 94.6687 11.6313C94.6687 9.89239 94.7945 7.56832 92.1934 8.39609C91.8037 14.6128 90.1657 19.3035 89.1327 19.3035C87.5888 19.3035 87.8984 8.56554 84.5635 8.56554C81.5681 8.56554 80.6405 18.735 80.0158 18.735C78.898 18.735 80.3645 7.28498 76.0368 7.28498C73.7667 7.28498 72.8652 11.1091 71.9748 15.3868C71.8033 16.2174 71.6215 16.2415 71.5916 15.3063C71.5683 14.5378 71.5627 13.6878 71.5711 12.9091C72.6647 8.60813 71.3297 7.01924 69.3243 8.16554C69.9713 16.1026 66.3037 19.9822 63.4891 19.9822C62.4701 19.9822 61.6721 19.5526 61.0735 18.8729C64.4484 16.8192 65.9494 14.4581 65.9494 12.1554C65.9494 9.65628 64.5053 8.21739 62.1056 8.21739C58.7577 8.21739 56.8847 11.6424 56.8847 14.5517C56.8847 16.1174 57.1775 17.4489 57.6651 18.5452C56.5137 19.0905 55.4285 19.5609 54.4198 20.0192C54.334 17.0248 53.9918 13.8794 53.7317 10.9794C51.952 10.4933 51.4308 11.3433 51.2938 12.9202C50.9768 16.5137 49.6362 18.7452 48.4512 18.7452C47.5581 18.7452 47.0146 17.6674 46.9493 16.5202C46.6183 10.7591 51.3274 9.15628 53.7914 9.99054C54.3023 8.72202 53.7411 7.80535 51.5185 7.80535C48.8242 7.80535 46.8095 9.43221 45.3327 11.5174C44.3473 12.9091 43.208 13.8961 41.694 15.0896C41.7322 14.7452 41.7527 14.4026 41.7527 14.0655C41.7527 10.0007 39.5376 8.21739 37.4204 8.21739C35.6695 8.21739 34.5675 9.26276 33.9308 10.8609C33.7723 9.25813 33.4507 8.56554 32.5118 8.56554C32.1082 8.56554 31.5516 8.6785 30.9512 8.96646C31.2253 9.86276 31.3334 11.847 31.3334 13.1544C31.3334 18.0405 29.9229 20.2304 28.5682 20.2304C27.0169 20.2304 26.7708 14.4359 26.6412 12.1804C26.4417 12.1118 26.2217 12.0415 25.8814 12.0415C24.4792 12.0415 24.2974 13.9118 23.9515 15.6322C23.5684 17.5359 22.4617 19.9341 20.8246 19.9341C19.8373 19.9341 19.2202 18.9859 19.1418 17.2831C18.9815 13.8285 21.8744 9.73498 26.4035 11.0072C26.9964 9.63221 26.065 8.58406 24.1865 8.58406C20.8768 8.58406 18.1396 11.0452 16.9472 13.9572C15.7353 16.6248 13.6152 20.5452 9.30151 20.5452C6.25478 20.5452 3.92405 17.9091 3.92405 12.372C3.92405 7.59887 6.954 3.06554 10.1853 3.06554C12.448 3.06554 12.971 5.27387 12.7724 7.34702C13.9415 8.2822 15.8639 7.41461 15.8639 5.08035C15.8639 3.47295 14.5494 0.746094 10.3056 0.746094C5.05306 0.746094 0.412109 5.94702 0.412109 12.7841C0.412109 19.4035 3.79633 23.3146 8.58271 23.3146C11.6043 23.3146 14.4543 21.6035 16.4233 18.4433C16.9165 21.2091 18.8127 22.3729 20.2354 22.3729C22.5373 22.3729 24.0401 20.8942 24.8615 18.8905C25.3742 20.8979 26.4557 22.3804 28.2494 22.3804C29.5145 22.3804 30.5009 21.7452 31.2439 20.7239C30.9512 27.6989 30.5773 32.1452 34.727 31.2692C34.0874 29.2878 33.8814 25.6766 33.8814 22.4368C33.8814 13.5665 35.3544 10.647 37.2022 10.647C38.5382 10.647 38.9717 12.3415 38.9717 14.1479C38.9717 15.1155 38.8785 16.2266 38.6323 17.2313C36.3603 18.6516 34.5498 19.7729 34.5498 21.1998C34.5498 22.3266 35.3908 22.4322 36.1198 22.4322C37.8641 22.4322 39.9599 20.7341 41.1188 17.5294C42.1322 16.9211 43.1484 16.2229 44.1198 15.2729C44.0862 15.5979 44.0685 15.9266 44.0685 16.2581C44.0685 19.4405 45.4707 21.3609 47.7073 21.3609C49.46 21.3609 50.7764 20.1266 51.704 18.2766C51.7637 19.3424 51.8 20.3239 51.814 21.2276C48.2592 22.86 44.323 24.5202 44.323 29.1266C44.323 31.5109 46.0562 33.3072 48.3142 33.3072C53.2684 33.3072 54.3993 28.1128 54.4449 22.0804C56.0569 21.385 57.2586 20.8498 58.6458 20.1692C59.8308 21.6424 61.4418 22.3804 62.9204 22.3804C65.7154 22.3804 67.8159 20.91 69.5014 17.9248C69.7998 20.197 70.3936 22.3804 71.6094 22.3804C73.8263 22.3804 74.2738 10.8711 75.9231 10.8711C77.1854 10.8711 76.1478 23.3248 79.4807 23.3248C82.3354 23.3248 82.8705 12.3655 84.2596 12.3655C85.2451 12.3655 85.3196 22.3822 88.426 22.3822C89.9559 22.3822 91.6145 20.5591 92.4442 16.7359C92.833 19.2794 94.1261 22.3822 96.6516 22.3822C98.1256 22.3822 99.3935 20.9016 100.37 18.9341C100.64 20.96 101.218 22.3822 102.332 22.3822C105.236 22.3822 105.139 10.897 107.438 10.897C109.23 10.897 108.675 22.3822 112.943 22.3822C114.976 22.3822 115.937 20.6637 116.509 18.5072C117.295 21.6794 118.564 22.3822 119.607 22.3822C120.268 22.3822 120.768 22.1526 121.423 21.3757C118.122 19.9535 118.4 14.7785 118.4 11.4378Z" fill="#0070AD"/>
<path fill-rule="evenodd" clip-rule="evenodd" d="M93.4723 5.92797C94.4241 5.89556 95.0879 5.08538 95.0917 4.12056C95.0963 3.1539 94.439 2.39741 93.4872 2.43075C92.5353 2.46316 91.7606 3.27241 91.7559 4.23816C91.7512 5.2039 92.5204 5.96038 93.4723 5.92797Z" fill="#0070AD"/>
<path fill-rule="evenodd" clip-rule="evenodd" d="M117.126 6.41841C117.992 6.38693 118.699 5.61656 118.701 4.69619C118.706 3.77582 118.005 3.05545 117.14 3.08693C116.272 3.11841 115.567 3.88971 115.563 4.80915C115.558 5.7286 116.259 6.44989 117.126 6.41841Z" fill="#0070AD"/>
<path fill-rule="evenodd" clip-rule="evenodd" d="M149.28 14.0617C149.209 10.4228 147.465 7.34962 144.778 4.8987C142.735 3.04592 140.309 1.64222 137.766 0.582031C137.563 0.496846 137.357 0.413513 137.15 0.332957C137.15 0.332957 137.148 0.332957 137.148 0.332031C134.018 4.05888 123.176 6.83944 123.176 14.6487C123.176 17.7024 125.119 20.557 127.97 21.7024C129.622 22.3228 131.275 22.357 132.93 21.8043C134.4 21.3255 135.61 20.42 136.616 19.3144C139.799 15.8191 141.095 10.395 145.003 10.395C148.577 10.395 149.059 12.9246 149.286 14.2913C149.286 14.2876 149.285 14.1931 149.28 14.0617Z" fill="#0070AD"/>
</g>
<defs>
<clipPath id="clip0_1505_5021">
<rect width="150" height="33.3333" fill="white"/>
</clipPath>
</defs>
</svg>
